<?xml version="1.0" encoding="utf-8" standalone="no"?>
<!DOCTYPE svg PUBLIC "-//W3C//DTD SVG 1.1//EN"
  "http://www.w3.org/Graphics/SVG/1.1/DTD/svg11.dtd">
<!-- Created with matplotlib (https://matplotlib.org/) -->
<svg height="288pt" version="1.1" viewBox="0 0 432 288" width="432pt" xmlns="http://www.w3.org/2000/svg" xmlns:xlink="http://www.w3.org/1999/xlink">
 <defs>
  <style type="text/css">
*{stroke-linecap:butt;stroke-linejoin:round;}
  </style>
 </defs>
 <g id="figure_1">
  <g id="patch_1">
   <path d="M 0 288 
L 432 288 
L 432 0 
L 0 0 
z
" style="fill:#ffffff;"/>
  </g>
  <g id="axes_1">
   <g id="patch_2">
    <path d="M 59.05 243.653125 
L 415.2 243.653125 
L 415.2 16.8 
L 59.05 16.8 
z
" style="fill:#eaeaf2;"/>
   </g>
   <g id="matplotlib.axis_1">
    <g id="xtick_1">
     <g id="line2d_1">
      <path clip-path="url(#pd58689fdc3)" d="M 75.238636 243.653125 
L 75.238636 16.8 
" style="fill:none;stroke:#ffffff;stroke-linecap:round;"/>
     </g>
     <g id="text_1">
      <!-- 0 -->
      <defs>
       <path d="M 4.15625 35.296875 
Q 4.15625 48 6.765625 55.734375 
Q 9.375 63.484375 14.515625 67.671875 
Q 19.671875 71.875 27.484375 71.875 
Q 33.25 71.875 37.59375 69.546875 
Q 41.9375 67.234375 44.765625 62.859375 
Q 47.609375 58.5 49.21875 52.21875 
Q 50.828125 45.953125 50.828125 35.296875 
Q 50.828125 22.703125 48.234375 14.96875 
Q 45.65625 7.234375 40.5 3 
Q 35.359375 -1.21875 27.484375 -1.21875 
Q 17.140625 -1.21875 11.234375 6.203125 
Q 4.15625 15.140625 4.15625 35.296875 
z
M 13.1875 35.296875 
Q 13.1875 17.671875 17.3125 11.828125 
Q 21.4375 6 27.484375 6 
Q 33.546875 6 37.671875 11.859375 
Q 41.796875 17.71875 41.796875 35.296875 
Q 41.796875 52.984375 37.671875 58.78125 
Q 33.546875 64.59375 27.390625 64.59375 
Q 21.34375 64.59375 17.71875 59.46875 
Q 13.1875 52.9375 13.1875 35.296875 
z
" id="ArialMT-48"/>
      </defs>
      <g style="fill:#262626;" transform="translate(72.180121 261.026719)scale(0.11 -0.11)">
       <use xlink:href="#ArialMT-48"/>
      </g>
     </g>
    </g>
    <g id="xtick_2">
     <g id="line2d_2">
      <path clip-path="url(#pd58689fdc3)" d="M 140.647268 243.653125 
L 140.647268 16.8 
" style="fill:none;stroke:#ffffff;stroke-linecap:round;"/>
     </g>
     <g id="text_2">
      <!-- 20 -->
      <defs>
       <path d="M 50.34375 8.453125 
L 50.34375 0 
L 3.03125 0 
Q 2.9375 3.171875 4.046875 6.109375 
Q 5.859375 10.9375 9.828125 15.625 
Q 13.8125 20.3125 21.34375 26.46875 
Q 33.015625 36.03125 37.109375 41.625 
Q 41.21875 47.21875 41.21875 52.203125 
Q 41.21875 57.421875 37.46875 61 
Q 33.734375 64.59375 27.734375 64.59375 
Q 21.390625 64.59375 17.578125 60.78125 
Q 13.765625 56.984375 13.71875 50.25 
L 4.6875 51.171875 
Q 5.609375 61.28125 11.65625 66.578125 
Q 17.71875 71.875 27.9375 71.875 
Q 38.234375 71.875 44.234375 66.15625 
Q 50.25 60.453125 50.25 52 
Q 50.25 47.703125 48.484375 43.546875 
Q 46.734375 39.40625 42.65625 34.8125 
Q 38.578125 30.21875 29.109375 22.21875 
Q 21.1875 15.578125 18.9375 13.203125 
Q 16.703125 10.84375 15.234375 8.453125 
z
" id="ArialMT-50"/>
      </defs>
      <g style="fill:#262626;" transform="translate(134.530237 261.026719)scale(0.11 -0.11)">
       <use xlink:href="#ArialMT-50"/>
       <use x="55.615234" xlink:href="#ArialMT-48"/>
      </g>
     </g>
    </g>
    <g id="xtick_3">
     <g id="line2d_3">
      <path clip-path="url(#pd58689fdc3)" d="M 206.0559 243.653125 
L 206.0559 16.8 
" style="fill:none;stroke:#ffffff;stroke-linecap:round;"/>
     </g>
     <g id="text_3">
      <!-- 40 -->
      <defs>
       <path d="M 32.328125 0 
L 32.328125 17.140625 
L 1.265625 17.140625 
L 1.265625 25.203125 
L 33.9375 71.578125 
L 41.109375 71.578125 
L 41.109375 25.203125 
L 50.78125 25.203125 
L 50.78125 17.140625 
L 41.109375 17.140625 
L 41.109375 0 
z
M 32.328125 25.203125 
L 32.328125 57.46875 
L 9.90625 25.203125 
z
" id="ArialMT-52"/>
      </defs>
      <g style="fill:#262626;" transform="translate(199.938869 261.026719)scale(0.11 -0.11)">
       <use xlink:href="#ArialMT-52"/>
       <use x="55.615234" xlink:href="#ArialMT-48"/>
      </g>
     </g>
    </g>
    <g id="xtick_4">
     <g id="line2d_4">
      <path clip-path="url(#pd58689fdc3)" d="M 271.464532 243.653125 
L 271.464532 16.8 
" style="fill:none;stroke:#ffffff;stroke-linecap:round;"/>
     </g>
     <g id="text_4">
      <!-- 60 -->
      <defs>
       <path d="M 49.75 54.046875 
L 41.015625 53.375 
Q 39.84375 58.546875 37.703125 60.890625 
Q 34.125 64.65625 28.90625 64.65625 
Q 24.703125 64.65625 21.53125 62.3125 
Q 17.390625 59.28125 14.984375 53.46875 
Q 12.59375 47.65625 12.5 36.921875 
Q 15.671875 41.75 20.265625 44.09375 
Q 24.859375 46.4375 29.890625 46.4375 
Q 38.671875 46.4375 44.84375 39.96875 
Q 51.03125 33.5 51.03125 23.25 
Q 51.03125 16.5 48.125 10.71875 
Q 45.21875 4.9375 40.140625 1.859375 
Q 35.0625 -1.21875 28.609375 -1.21875 
Q 17.625 -1.21875 10.6875 6.859375 
Q 3.765625 14.9375 3.765625 33.5 
Q 3.765625 54.25 11.421875 63.671875 
Q 18.109375 71.875 29.4375 71.875 
Q 37.890625 71.875 43.28125 67.140625 
Q 48.6875 62.40625 49.75 54.046875 
z
M 13.875 23.1875 
Q 13.875 18.65625 15.796875 14.5 
Q 17.71875 10.359375 21.1875 8.171875 
Q 24.65625 6 28.46875 6 
Q 34.03125 6 38.03125 10.484375 
Q 42.046875 14.984375 42.046875 22.703125 
Q 42.046875 30.125 38.078125 34.390625 
Q 34.125 38.671875 28.125 38.671875 
Q 22.171875 38.671875 18.015625 34.390625 
Q 13.875 30.125 13.875 23.1875 
z
" id="ArialMT-54"/>
      </defs>
      <g style="fill:#262626;" transform="translate(265.3475 261.026719)scale(0.11 -0.11)">
       <use xlink:href="#ArialMT-54"/>
       <use x="55.615234" xlink:href="#ArialMT-48"/>
      </g>
     </g>
    </g>
    <g id="xtick_5">
     <g id="line2d_5">
      <path clip-path="url(#pd58689fdc3)" d="M 336.873163 243.653125 
L 336.873163 16.8 
" style="fill:none;stroke:#ffffff;stroke-linecap:round;"/>
     </g>
     <g id="text_5">
      <!-- 80 -->
      <defs>
       <path d="M 17.671875 38.8125 
Q 12.203125 40.828125 9.5625 44.53125 
Q 6.9375 48.25 6.9375 53.421875 
Q 6.9375 61.234375 12.546875 66.546875 
Q 18.171875 71.875 27.484375 71.875 
Q 36.859375 71.875 42.578125 66.421875 
Q 48.296875 60.984375 48.296875 53.171875 
Q 48.296875 48.1875 45.671875 44.5 
Q 43.0625 40.828125 37.75 38.8125 
Q 44.34375 36.671875 47.78125 31.875 
Q 51.21875 27.09375 51.21875 20.453125 
Q 51.21875 11.28125 44.71875 5.03125 
Q 38.234375 -1.21875 27.640625 -1.21875 
Q 17.046875 -1.21875 10.546875 5.046875 
Q 4.046875 11.328125 4.046875 20.703125 
Q 4.046875 27.6875 7.59375 32.390625 
Q 11.140625 37.109375 17.671875 38.8125 
z
M 15.921875 53.71875 
Q 15.921875 48.640625 19.1875 45.40625 
Q 22.46875 42.1875 27.6875 42.1875 
Q 32.765625 42.1875 36.015625 45.375 
Q 39.265625 48.578125 39.265625 53.21875 
Q 39.265625 58.0625 35.90625 61.359375 
Q 32.5625 64.65625 27.59375 64.65625 
Q 22.5625 64.65625 19.234375 61.421875 
Q 15.921875 58.203125 15.921875 53.71875 
z
M 13.09375 20.65625 
Q 13.09375 16.890625 14.875 13.375 
Q 16.65625 9.859375 20.171875 7.921875 
Q 23.6875 6 27.734375 6 
Q 34.03125 6 38.125 10.046875 
Q 42.234375 14.109375 42.234375 20.359375 
Q 42.234375 26.703125 38.015625 30.859375 
Q 33.796875 35.015625 27.4375 35.015625 
Q 21.234375 35.015625 17.15625 30.90625 
Q 13.09375 26.8125 13.09375 20.65625 
z
" id="ArialMT-56"/>
      </defs>
      <g style="fill:#262626;" transform="translate(330.756132 261.026719)scale(0.11 -0.11)">
       <use xlink:href="#ArialMT-56"/>
       <use x="55.615234" xlink:href="#ArialMT-48"/>
      </g>
     </g>
    </g>
    <g id="xtick_6">
     <g id="line2d_6">
      <path clip-path="url(#pd58689fdc3)" d="M 402.281795 243.653125 
L 402.281795 16.8 
" style="fill:none;stroke:#ffffff;stroke-linecap:round;"/>
     </g>
     <g id="text_6">
      <!-- 100 -->
      <defs>
       <path d="M 37.25 0 
L 28.46875 0 
L 28.46875 56 
Q 25.296875 52.984375 20.140625 49.953125 
Q 14.984375 46.921875 10.890625 45.40625 
L 10.890625 53.90625 
Q 18.265625 57.375 23.78125 62.296875 
Q 29.296875 67.234375 31.59375 71.875 
L 37.25 71.875 
z
" id="ArialMT-49"/>
      </defs>
      <g style="fill:#262626;" transform="translate(393.106248 261.026719)scale(0.11 -0.11)">
       <use xlink:href="#ArialMT-49"/>
       <use x="55.615234" xlink:href="#ArialMT-48"/>
       <use x="111.230469" xlink:href="#ArialMT-48"/>
      </g>
     </g>
    </g>
    <g id="text_7">
     <!-- Facility life (years) -->
     <defs>
      <path d="M 8.203125 0 
L 8.203125 71.578125 
L 56.5 71.578125 
L 56.5 63.140625 
L 17.671875 63.140625 
L 17.671875 40.96875 
L 51.265625 40.96875 
L 51.265625 32.515625 
L 17.671875 32.515625 
L 17.671875 0 
z
" id="ArialMT-70"/>
      <path d="M 40.4375 6.390625 
Q 35.546875 2.25 31.03125 0.53125 
Q 26.515625 -1.171875 21.34375 -1.171875 
Q 12.796875 -1.171875 8.203125 3 
Q 3.609375 7.171875 3.609375 13.671875 
Q 3.609375 17.484375 5.34375 20.625 
Q 7.078125 23.78125 9.890625 25.6875 
Q 12.703125 27.59375 16.21875 28.5625 
Q 18.796875 29.25 24.03125 29.890625 
Q 34.671875 31.15625 39.703125 32.90625 
Q 39.75 34.71875 39.75 35.203125 
Q 39.75 40.578125 37.25 42.78125 
Q 33.890625 45.75 27.25 45.75 
Q 21.046875 45.75 18.09375 43.578125 
Q 15.140625 41.40625 13.71875 35.890625 
L 5.125 37.0625 
Q 6.296875 42.578125 8.984375 45.96875 
Q 11.671875 49.359375 16.75 51.1875 
Q 21.828125 53.03125 28.515625 53.03125 
Q 35.15625 53.03125 39.296875 51.46875 
Q 43.453125 49.90625 45.40625 47.53125 
Q 47.359375 45.171875 48.140625 41.546875 
Q 48.578125 39.3125 48.578125 33.453125 
L 48.578125 21.734375 
Q 48.578125 9.46875 49.140625 6.21875 
Q 49.703125 2.984375 51.375 0 
L 42.1875 0 
Q 40.828125 2.734375 40.4375 6.390625 
z
M 39.703125 26.03125 
Q 34.90625 24.078125 25.34375 22.703125 
Q 19.921875 21.921875 17.671875 20.9375 
Q 15.4375 19.96875 14.203125 18.09375 
Q 12.984375 16.21875 12.984375 13.921875 
Q 12.984375 10.40625 15.640625 8.0625 
Q 18.3125 5.71875 23.4375 5.71875 
Q 28.515625 5.71875 32.46875 7.9375 
Q 36.421875 10.15625 38.28125 14.015625 
Q 39.703125 17 39.703125 22.796875 
z
" id="ArialMT-97"/>
      <path d="M 40.4375 19 
L 49.078125 17.875 
Q 47.65625 8.9375 41.8125 3.875 
Q 35.984375 -1.171875 27.484375 -1.171875 
Q 16.84375 -1.171875 10.375 5.78125 
Q 3.90625 12.75 3.90625 25.734375 
Q 3.90625 34.125 6.6875 40.421875 
Q 9.46875 46.734375 15.15625 49.875 
Q 20.84375 53.03125 27.546875 53.03125 
Q 35.984375 53.03125 41.359375 48.75 
Q 46.734375 44.484375 48.25 36.625 
L 39.703125 35.296875 
Q 38.484375 40.53125 35.375 43.15625 
Q 32.28125 45.796875 27.875 45.796875 
Q 21.234375 45.796875 17.078125 41.03125 
Q 12.9375 36.28125 12.9375 25.984375 
Q 12.9375 15.53125 16.9375 10.796875 
Q 20.953125 6.0625 27.390625 6.0625 
Q 32.5625 6.0625 36.03125 9.234375 
Q 39.5 12.40625 40.4375 19 
z
" id="ArialMT-99"/>
      <path d="M 6.640625 61.46875 
L 6.640625 71.578125 
L 15.4375 71.578125 
L 15.4375 61.46875 
z
M 6.640625 0 
L 6.640625 51.859375 
L 15.4375 51.859375 
L 15.4375 0 
z
" id="ArialMT-105"/>
      <path d="M 6.390625 0 
L 6.390625 71.578125 
L 15.1875 71.578125 
L 15.1875 0 
z
" id="ArialMT-108"/>
      <path d="M 25.78125 7.859375 
L 27.046875 0.09375 
Q 23.34375 -0.6875 20.40625 -0.6875 
Q 15.625 -0.6875 12.984375 0.828125 
Q 10.359375 2.34375 9.28125 4.8125 
Q 8.203125 7.28125 8.203125 15.1875 
L 8.203125 45.015625 
L 1.765625 45.015625 
L 1.765625 51.859375 
L 8.203125 51.859375 
L 8.203125 64.703125 
L 16.9375 69.96875 
L 16.9375 51.859375 
L 25.78125 51.859375 
L 25.78125 45.015625 
L 16.9375 45.015625 
L 16.9375 14.703125 
Q 16.9375 10.9375 17.40625 9.859375 
Q 17.875 8.796875 18.921875 8.15625 
Q 19.96875 7.515625 21.921875 7.515625 
Q 23.390625 7.515625 25.78125 7.859375 
z
" id="ArialMT-116"/>
      <path d="M 6.203125 -19.96875 
L 5.21875 -11.71875 
Q 8.109375 -12.5 10.25 -12.5 
Q 13.1875 -12.5 14.9375 -11.515625 
Q 16.703125 -10.546875 17.828125 -8.796875 
Q 18.65625 -7.46875 20.515625 -2.25 
Q 20.75 -1.515625 21.296875 -0.09375 
L 1.609375 51.859375 
L 11.078125 51.859375 
L 21.875 21.828125 
Q 23.96875 16.109375 25.640625 9.8125 
Q 27.15625 15.875 29.25 21.625 
L 40.328125 51.859375 
L 49.125 51.859375 
L 29.390625 -0.875 
Q 26.21875 -9.421875 24.46875 -12.640625 
Q 22.125 -17 19.09375 -19.015625 
Q 16.0625 -21.046875 11.859375 -21.046875 
Q 9.328125 -21.046875 6.203125 -19.96875 
z
" id="ArialMT-121"/>
      <path id="ArialMT-32"/>
      <path d="M 8.6875 0 
L 8.6875 45.015625 
L 0.921875 45.015625 
L 0.921875 51.859375 
L 8.6875 51.859375 
L 8.6875 57.375 
Q 8.6875 62.59375 9.625 65.140625 
Q 10.890625 68.5625 14.078125 70.671875 
Q 17.28125 72.796875 23.046875 72.796875 
Q 26.765625 72.796875 31.25 71.921875 
L 29.9375 64.265625 
Q 27.203125 64.75 24.75 64.75 
Q 20.75 64.75 19.09375 63.03125 
Q 17.4375 61.328125 17.4375 56.640625 
L 17.4375 51.859375 
L 27.546875 51.859375 
L 27.546875 45.015625 
L 17.4375 45.015625 
L 17.4375 0 
z
" id="ArialMT-102"/>
      <path d="M 42.09375 16.703125 
L 51.171875 15.578125 
Q 49.03125 7.625 43.21875 3.21875 
Q 37.40625 -1.171875 28.375 -1.171875 
Q 17 -1.171875 10.328125 5.828125 
Q 3.65625 12.84375 3.65625 25.484375 
Q 3.65625 38.578125 10.390625 45.796875 
Q 17.140625 53.03125 27.875 53.03125 
Q 38.28125 53.03125 44.875 45.953125 
Q 51.46875 38.875 51.46875 26.03125 
Q 51.46875 25.25 51.421875 23.6875 
L 12.75 23.6875 
Q 13.234375 15.140625 17.578125 10.59375 
Q 21.921875 6.0625 28.421875 6.0625 
Q 33.25 6.0625 36.671875 8.59375 
Q 40.09375 11.140625 42.09375 16.703125 
z
M 13.234375 30.90625 
L 42.1875 30.90625 
Q 41.609375 37.453125 38.875 40.71875 
Q 34.671875 45.796875 27.984375 45.796875 
Q 21.921875 45.796875 17.796875 41.75 
Q 13.671875 37.703125 13.234375 30.90625 
z
" id="ArialMT-101"/>
      <path d="M 23.390625 -21.046875 
Q 16.109375 -11.859375 11.078125 0.4375 
Q 6.0625 12.75 6.0625 25.921875 
Q 6.0625 37.546875 9.8125 48.1875 
Q 14.203125 60.546875 23.390625 72.796875 
L 29.6875 72.796875 
Q 23.78125 62.640625 21.875 58.296875 
Q 18.890625 51.5625 17.1875 44.234375 
Q 15.09375 35.109375 15.09375 25.875 
Q 15.09375 2.390625 29.6875 -21.046875 
z
" id="ArialMT-40"/>
      <path d="M 6.5 0 
L 6.5 51.859375 
L 14.40625 51.859375 
L 14.40625 44 
Q 17.4375 49.515625 20 51.265625 
Q 22.5625 53.03125 25.640625 53.03125 
Q 30.078125 53.03125 34.671875 50.203125 
L 31.640625 42.046875 
Q 28.421875 43.953125 25.203125 43.953125 
Q 22.3125 43.953125 20.015625 42.21875 
Q 17.71875 40.484375 16.75 37.40625 
Q 15.28125 32.71875 15.28125 27.15625 
L 15.28125 0 
z
" id="ArialMT-114"/>
      <path d="M 3.078125 15.484375 
L 11.765625 16.84375 
Q 12.5 11.625 15.84375 8.84375 
Q 19.1875 6.0625 25.203125 6.0625 
Q 31.25 6.0625 34.171875 8.515625 
Q 37.109375 10.984375 37.109375 14.3125 
Q 37.109375 17.28125 34.515625 19 
Q 32.71875 20.171875 25.53125 21.96875 
Q 15.875 24.421875 12.140625 26.203125 
Q 8.40625 27.984375 6.46875 31.125 
Q 4.546875 34.28125 4.546875 38.09375 
Q 4.546875 41.546875 6.125 44.5 
Q 7.71875 47.46875 10.453125 49.421875 
Q 12.5 50.921875 16.03125 51.96875 
Q 19.578125 53.03125 23.640625 53.03125 
Q 29.734375 53.03125 34.34375 51.265625 
Q 38.96875 49.515625 41.15625 46.5 
Q 43.359375 43.5 44.1875 38.484375 
L 35.59375 37.3125 
Q 35.015625 41.3125 32.203125 43.546875 
Q 29.390625 45.796875 24.265625 45.796875 
Q 18.21875 45.796875 15.625 43.796875 
Q 13.03125 41.796875 13.03125 39.109375 
Q 13.03125 37.40625 14.109375 36.03125 
Q 15.1875 34.625 17.484375 33.6875 
Q 18.796875 33.203125 25.25 31.453125 
Q 34.578125 28.953125 38.25 27.359375 
Q 41.9375 25.78125 44.03125 22.75 
Q 46.140625 19.734375 46.140625 15.234375 
Q 46.140625 10.84375 43.578125 6.953125 
Q 41.015625 3.078125 36.171875 0.953125 
Q 31.34375 -1.171875 25.25 -1.171875 
Q 15.140625 -1.171875 9.84375 3.03125 
Q 4.546875 7.234375 3.078125 15.484375 
z
" id="ArialMT-115"/>
      <path d="M 12.359375 -21.046875 
L 6.0625 -21.046875 
Q 20.65625 2.390625 20.65625 25.875 
Q 20.65625 35.0625 18.5625 44.09375 
Q 16.890625 51.421875 13.921875 58.15625 
Q 12.015625 62.546875 6.0625 72.796875 
L 12.359375 72.796875 
Q 21.53125 60.546875 25.921875 48.1875 
Q 29.6875 37.546875 29.6875 25.921875 
Q 29.6875 12.75 24.625 0.4375 
Q 19.578125 -11.859375 12.359375 -21.046875 
z
" id="ArialMT-41"/>
     </defs>
     <g style="fill:#262626;" transform="translate(188.7875 275.948594)scale(0.12 -0.12)">
      <use xlink:href="#ArialMT-70"/>
      <use x="61.083984" xlink:href="#ArialMT-97"/>
      <use x="116.699219" xlink:href="#ArialMT-99"/>
      <use x="166.699219" xlink:href="#ArialMT-105"/>
      <use x="188.916016" xlink:href="#ArialMT-108"/>
      <use x="211.132812" xlink:href="#ArialMT-105"/>
      <use x="233.349609" xlink:href="#ArialMT-116"/>
      <use x="261.132812" xlink:href="#ArialMT-121"/>
      <use x="311.132812" xlink:href="#ArialMT-32"/>
      <use x="338.916016" xlink:href="#ArialMT-108"/>
      <use x="361.132812" xlink:href="#ArialMT-105"/>
      <use x="383.349609" xlink:href="#ArialMT-102"/>
      <use x="411.132812" xlink:href="#ArialMT-101"/>
      <use x="466.748047" xlink:href="#ArialMT-32"/>
      <use x="494.53125" xlink:href="#ArialMT-40"/>
      <use x="527.832031" xlink:href="#ArialMT-121"/>
      <use x="577.832031" xlink:href="#ArialMT-101"/>
      <use x="633.447266" xlink:href="#ArialMT-97"/>
      <use x="689.0625" xlink:href="#ArialMT-114"/>
      <use x="722.363281" xlink:href="#ArialMT-115"/>
      <use x="772.363281" xlink:href="#ArialMT-41"/>
     </g>
    </g>
   </g>
   <g id="matplotlib.axis_2">
    <g id="ytick_1">
     <g id="line2d_7">
      <path clip-path="url(#pd58689fdc3)" d="M 59.05 233.341619 
L 415.2 233.341619 
" style="fill:none;stroke:#ffffff;stroke-linecap:round;"/>
     </g>
     <g id="text_8">
      <!-- −100 -->
      <defs>
       <path d="M 52.828125 31.203125 
L 5.5625 31.203125 
L 5.5625 39.40625 
L 52.828125 39.40625 
z
" id="ArialMT-8722"/>
      </defs>
      <g style="fill:#262626;" transform="translate(24.774219 237.278416)scale(0.11 -0.11)">
       <use xlink:href="#ArialMT-8722"/>
       <use x="58.398438" xlink:href="#ArialMT-49"/>
       <use x="114.013672" xlink:href="#ArialMT-48"/>
       <use x="169.628906" xlink:href="#ArialMT-48"/>
      </g>
     </g>
    </g>
    <g id="ytick_2">
     <g id="line2d_8">
      <path clip-path="url(#pd58689fdc3)" d="M 59.05 185.336828 
L 415.2 185.336828 
" style="fill:none;stroke:#ffffff;stroke-linecap:round;"/>
     </g>
     <g id="text_9">
      <!-- 0 -->
      <g style="fill:#262626;" transform="translate(43.432969 189.273625)scale(0.11 -0.11)">
       <use xlink:href="#ArialMT-48"/>
      </g>
     </g>
    </g>
    <g id="ytick_3">
     <g id="line2d_9">
      <path clip-path="url(#pd58689fdc3)" d="M 59.05 137.332037 
L 415.2 137.332037 
" style="fill:none;stroke:#ffffff;stroke-linecap:round;"/>
     </g>
     <g id="text_10">
      <!-- 100 -->
      <g style="fill:#262626;" transform="translate(31.198906 141.268833)scale(0.11 -0.11)">
       <use xlink:href="#ArialMT-49"/>
       <use x="55.615234" xlink:href="#ArialMT-48"/>
       <use x="111.230469" xlink:href="#ArialMT-48"/>
      </g>
     </g>
    </g>
    <g id="ytick_4">
     <g id="line2d_10">
      <path clip-path="url(#pd58689fdc3)" d="M 59.05 89.327245 
L 415.2 89.327245 
" style="fill:none;stroke:#ffffff;stroke-linecap:round;"/>
     </g>
     <g id="text_11">
      <!-- 200 -->
      <g style="fill:#262626;" transform="translate(31.198906 93.264042)scale(0.11 -0.11)">
       <use xlink:href="#ArialMT-50"/>
       <use x="55.615234" xlink:href="#ArialMT-48"/>
       <use x="111.230469" xlink:href="#ArialMT-48"/>
      </g>
     </g>
    </g>
    <g id="ytick_5">
     <g id="line2d_11">
      <path clip-path="url(#pd58689fdc3)" d="M 59.05 41.322454 
L 415.2 41.322454 
" style="fill:none;stroke:#ffffff;stroke-linecap:round;"/>
     </g>
     <g id="text_12">
      <!-- 300 -->
      <defs>
       <path d="M 4.203125 18.890625 
L 12.984375 20.0625 
Q 14.5 12.59375 18.140625 9.296875 
Q 21.78125 6 27 6 
Q 33.203125 6 37.46875 10.296875 
Q 41.75 14.59375 41.75 20.953125 
Q 41.75 27 37.796875 30.921875 
Q 33.84375 34.859375 27.734375 34.859375 
Q 25.25 34.859375 21.53125 33.890625 
L 22.515625 41.609375 
Q 23.390625 41.5 23.921875 41.5 
Q 29.546875 41.5 34.03125 44.421875 
Q 38.53125 47.359375 38.53125 53.46875 
Q 38.53125 58.296875 35.25 61.46875 
Q 31.984375 64.65625 26.8125 64.65625 
Q 21.6875 64.65625 18.265625 61.421875 
Q 14.84375 58.203125 13.875 51.765625 
L 5.078125 53.328125 
Q 6.6875 62.15625 12.390625 67.015625 
Q 18.109375 71.875 26.609375 71.875 
Q 32.46875 71.875 37.390625 69.359375 
Q 42.328125 66.84375 44.9375 62.5 
Q 47.5625 58.15625 47.5625 53.265625 
Q 47.5625 48.640625 45.0625 44.828125 
Q 42.578125 41.015625 37.703125 38.765625 
Q 44.046875 37.3125 47.5625 32.6875 
Q 51.078125 28.078125 51.078125 21.140625 
Q 51.078125 11.765625 44.234375 5.25 
Q 37.40625 -1.265625 26.953125 -1.265625 
Q 17.53125 -1.265625 11.296875 4.34375 
Q 5.078125 9.96875 4.203125 18.890625 
z
" id="ArialMT-51"/>
      </defs>
      <g style="fill:#262626;" transform="translate(31.198906 45.259251)scale(0.11 -0.11)">
       <use xlink:href="#ArialMT-51"/>
       <use x="55.615234" xlink:href="#ArialMT-48"/>
       <use x="111.230469" xlink:href="#ArialMT-48"/>
      </g>
     </g>
    </g>
    <g id="text_13">
     <!-- NPV -->
     <defs>
      <path d="M 7.625 0 
L 7.625 71.578125 
L 17.328125 71.578125 
L 54.9375 15.375 
L 54.9375 71.578125 
L 64.015625 71.578125 
L 64.015625 0 
L 54.296875 0 
L 16.703125 56.25 
L 16.703125 0 
z
" id="ArialMT-78"/>
      <path d="M 7.71875 0 
L 7.71875 71.578125 
L 34.71875 71.578125 
Q 41.84375 71.578125 45.609375 70.90625 
Q 50.875 70.015625 54.4375 67.546875 
Q 58.015625 65.09375 60.1875 60.640625 
Q 62.359375 56.203125 62.359375 50.875 
Q 62.359375 41.75 56.546875 35.421875 
Q 50.734375 29.109375 35.546875 29.109375 
L 17.1875 29.109375 
L 17.1875 0 
z
M 17.1875 37.546875 
L 35.6875 37.546875 
Q 44.875 37.546875 48.734375 40.96875 
Q 52.59375 44.390625 52.59375 50.59375 
Q 52.59375 55.078125 50.3125 58.265625 
Q 48.046875 61.46875 44.34375 62.5 
Q 41.9375 63.140625 35.5 63.140625 
L 17.1875 63.140625 
z
" id="ArialMT-80"/>
      <path d="M 28.171875 0 
L 0.4375 71.578125 
L 10.6875 71.578125 
L 29.296875 19.578125 
Q 31.546875 13.328125 33.0625 7.859375 
Q 34.71875 13.71875 36.921875 19.578125 
L 56.25 71.578125 
L 65.921875 71.578125 
L 37.890625 0 
z
" id="ArialMT-86"/>
     </defs>
     <g style="fill:#262626;" transform="translate(18.389219 142.564062)rotate(-90)scale(0.12 -0.12)">
      <use xlink:href="#ArialMT-78"/>
      <use x="72.216797" xlink:href="#ArialMT-80"/>
      <use x="138.916016" xlink:href="#ArialMT-86"/>
     </g>
    </g>
   </g>
   <g id="line2d_12">
    <path clip-path="url(#pd58689fdc3)" d="M 75.238636 233.341619 
L 78.509068 228.635267 
L 81.7795 224.021197 
L 85.049931 219.497598 
L 88.320363 215.062697 
L 91.590794 210.714755 
L 94.861226 206.452067 
L 98.131657 202.272961 
L 101.402089 198.175798 
L 104.672521 194.158972 
L 107.942952 190.220907 
L 111.213384 186.360059 
L 114.483815 182.574914 
L 117.754247 178.863988 
L 121.024679 175.225825 
L 124.29511 171.658998 
L 127.565542 168.162109 
L 130.835973 164.733787 
L 134.106405 161.372686 
L 137.376837 158.077489 
L 140.647268 154.846905 
L 143.9177 151.679665 
L 147.188131 148.574527 
L 150.458563 145.530275 
L 153.728994 142.545714 
L 156.999426 139.619674 
L 160.269858 136.751007 
L 163.540289 133.938588 
L 166.810721 131.181315 
L 170.081152 128.478106 
L 173.351584 125.827902 
L 176.622016 123.229662 
L 179.892447 120.682368 
L 183.162879 118.18502 
L 186.43331 115.736641 
L 189.703742 113.336269 
L 192.974174 110.982963 
L 196.244605 108.6758 
L 199.515037 106.413876 
L 202.785468 104.196303 
L 206.0559 102.022212 
L 209.326331 99.89075 
L 212.596763 97.801082 
L 215.867195 95.752387 
L 219.137626 93.743863 
L 222.408058 91.774722 
L 225.678489 89.844191 
L 228.948921 87.951514 
L 232.219353 86.095949 
L 235.489784 84.276767 
L 238.760216 82.493255 
L 242.030647 80.744714 
L 245.301079 79.030458 
L 248.571511 77.349815 
L 251.841942 75.702125 
L 255.112374 74.086744 
L 258.382805 72.503036 
L 261.653237 70.950382 
L 264.923669 69.428172 
L 268.1941 67.935809 
L 271.464532 66.472708 
L 274.734963 65.038295 
L 278.005395 63.632008 
L 281.275826 62.253296 
L 284.546258 60.901617 
L 287.81669 59.576441 
L 291.087121 58.277249 
L 294.357553 57.003532 
L 297.627984 55.754789 
L 300.898416 54.530532 
L 304.168848 53.33028 
L 307.439279 52.153562 
L 310.709711 50.999917 
L 313.980142 49.868892 
L 317.250574 48.760044 
L 320.521006 47.672939 
L 323.791437 46.607149 
L 327.061869 45.562257 
L 330.3323 44.537853 
L 333.602732 43.533536 
L 336.873163 42.548911 
L 340.143595 41.583592 
L 343.414027 40.637202 
L 346.684458 39.709367 
L 349.95489 38.799726 
L 353.225321 37.907921 
L 356.495753 37.033602 
L 359.766185 36.176427 
L 363.036616 35.336059 
L 366.307048 34.512169 
L 369.577479 33.704433 
L 372.847911 32.912536 
L 376.118343 32.136166 
L 379.388774 31.375019 
L 382.659206 30.628796 
L 385.929637 29.897205 
L 389.200069 29.179959 
L 392.4705 28.476777 
L 395.740932 27.787383 
L 399.011364 27.111506 
" style="fill:none;stroke:#4c72b0;stroke-linecap:round;stroke-width:1.5;"/>
   </g>
   <g id="line2d_13">
    <path clip-path="url(#pd58689fdc3)" d="M 75.238636 233.341619 
L 78.509068 228.769734 
L 81.7795 224.415558 
L 85.049931 220.268724 
L 88.320363 216.319358 
L 91.590794 212.558057 
L 94.861226 208.975865 
L 98.131657 205.564255 
L 101.402089 202.315101 
L 104.672521 199.22067 
L 107.942952 196.273592 
L 111.213384 193.466851 
L 114.483815 190.793765 
L 117.754247 188.247968 
L 121.024679 185.8234 
L 124.29511 183.514287 
L 127.565542 181.315133 
L 130.835973 179.220699 
L 134.106405 177.226001 
L 137.376837 175.326289 
L 140.647268 173.517039 
L 143.9177 171.793943 
L 147.188131 170.1529 
L 150.458563 168.590002 
L 153.728994 167.101527 
L 156.999426 165.683932 
L 160.269858 164.333842 
L 163.540289 163.048042 
L 166.810721 161.82347 
L 170.081152 160.657211 
L 173.351584 159.546489 
L 176.622016 158.488658 
L 179.892447 157.4812 
L 183.162879 156.521716 
L 186.43331 155.607921 
L 189.703742 154.737641 
L 192.974174 153.908803 
L 196.244605 153.119433 
L 199.515037 152.367652 
L 202.785468 151.651671 
L 206.0559 150.969783 
L 209.326331 150.320367 
L 212.596763 149.701875 
L 215.867195 149.112835 
L 219.137626 148.551844 
L 222.408058 148.017568 
L 225.678489 147.508733 
L 228.948921 147.024128 
L 232.219353 146.5626 
L 235.489784 146.12305 
L 238.760216 145.70443 
L 242.030647 145.305745 
L 245.301079 144.926044 
L 248.571511 144.564425 
L 251.841942 144.220025 
L 255.112374 143.892026 
L 258.382805 143.579645 
L 261.653237 143.28214 
L 264.923669 142.998802 
L 268.1941 142.728956 
L 271.464532 142.47196 
L 274.734963 142.227202 
L 278.005395 141.994098 
L 281.275826 141.772096 
L 284.546258 141.560664 
L 287.81669 141.359301 
L 291.087121 141.167526 
L 294.357553 140.984884 
L 297.627984 140.810939 
L 300.898416 140.645277 
L 304.168848 140.487504 
L 307.439279 140.337243 
L 310.709711 140.194138 
L 313.980142 140.057848 
L 317.250574 139.928047 
L 320.521006 139.804428 
L 323.791437 139.686695 
L 327.061869 139.574568 
L 330.3323 139.467781 
L 333.602732 139.366079 
L 336.873163 139.26922 
L 340.143595 139.176973 
L 343.414027 139.089119 
L 346.684458 139.005448 
L 349.95489 138.925762 
L 353.225321 138.84987 
L 356.495753 138.777592 
L 359.766185 138.708756 
L 363.036616 138.643198 
L 366.307048 138.580762 
L 369.577479 138.521299 
L 372.847911 138.464667 
L 376.118343 138.410733 
L 379.388774 138.359366 
L 382.659206 138.310446 
L 385.929637 138.263855 
L 389.200069 138.219482 
L 392.4705 138.177223 
L 395.740932 138.136976 
L 399.011364 138.098646 
" style="fill:none;stroke:#dd8452;stroke-linecap:round;stroke-width:1.5;"/>
   </g>
   <g id="line2d_14">
    <path clip-path="url(#pd58689fdc3)" d="M 75.238636 233.341619 
L 78.509068 228.977547 
L 81.7795 225.010209 
L 85.049931 221.403538 
L 88.320363 218.124746 
L 91.590794 215.144027 
L 94.861226 212.434281 
L 98.131657 209.970876 
L 101.402089 207.731417 
L 104.672521 205.695546 
L 107.942952 203.844753 
L 111.213384 202.162214 
L 114.483815 200.632634 
L 117.754247 199.242106 
L 121.024679 197.97799 
L 124.29511 196.828793 
L 127.565542 195.784069 
L 130.835973 194.83432 
L 134.106405 193.970912 
L 137.376837 193.185995 
L 140.647268 192.472434 
L 143.9177 191.823743 
L 147.188131 191.234023 
L 150.458563 190.697915 
L 153.728994 190.210543 
L 156.999426 189.767478 
L 160.269858 189.364692 
L 163.540289 188.998522 
L 166.810721 188.665641 
L 170.081152 188.363022 
L 173.351584 188.087913 
L 176.622016 187.837814 
L 179.892447 187.610452 
L 183.162879 187.403759 
L 186.43331 187.215856 
L 189.703742 187.045035 
L 192.974174 186.889744 
L 196.244605 186.74857 
L 199.515037 186.620229 
L 202.785468 186.503557 
L 206.0559 186.39749 
L 209.326331 186.301066 
L 212.596763 186.213408 
L 215.867195 186.133719 
L 219.137626 186.061275 
L 222.408058 185.995416 
L 225.678489 185.935544 
L 228.948921 185.881115 
L 232.219353 185.831635 
L 235.489784 185.786652 
L 238.760216 185.745759 
L 242.030647 185.708584 
L 245.301079 185.674788 
L 248.571511 185.644064 
L 251.841942 185.616133 
L 255.112374 185.590742 
L 258.382805 185.567659 
L 261.653237 185.546674 
L 264.923669 185.527597 
L 268.1941 185.510255 
L 271.464532 185.494489 
L 274.734963 185.480156 
L 278.005395 185.467126 
L 281.275826 185.455281 
L 284.546258 185.444512 
L 287.81669 185.434723 
L 291.087121 185.425823 
L 294.357553 185.417733 
L 297.627984 185.410378 
L 300.898416 185.403691 
L 304.168848 185.397613 
L 307.439279 185.392087 
L 310.709711 185.387063 
L 313.980142 185.382497 
L 317.250574 185.378345 
L 320.521006 185.374571 
L 323.791437 185.371139 
L 327.061869 185.36802 
L 330.3323 185.365185 
L 333.602732 185.362607 
L 336.873163 185.360263 
L 340.143595 185.358133 
L 343.414027 185.356196 
L 346.684458 185.354435 
L 349.95489 185.352835 
L 353.225321 185.351379 
L 356.495753 185.350057 
L 359.766185 185.348854 
L 363.036616 185.347761 
L 366.307048 185.346767 
L 369.577479 185.345863 
L 372.847911 185.345042 
L 376.118343 185.344295 
L 379.388774 185.343616 
L 382.659206 185.342999 
L 385.929637 185.342438 
L 389.200069 185.341928 
L 392.4705 185.341464 
L 395.740932 185.341043 
L 399.011364 185.34066 
" style="fill:none;stroke:#55a868;stroke-linecap:round;stroke-width:1.5;"/>
   </g>
   <g id="line2d_15">
    <path clip-path="url(#pd58689fdc3)" d="M 75.238636 233.341619 
L 78.509068 229.16729 
L 81.7795 225.537438 
L 85.049931 222.381045 
L 88.320363 219.636355 
L 91.590794 217.249669 
L 94.861226 215.174289 
L 98.131657 213.369611 
L 101.402089 211.800326 
L 104.672521 210.43573 
L 107.942952 209.249125 
L 111.213384 208.217295 
L 114.483815 207.320051 
L 117.754247 206.539839 
L 121.024679 205.861394 
L 124.29511 205.271441 
L 127.565542 204.758439 
L 130.835973 204.31235 
L 134.106405 203.924447 
L 137.376837 203.58714 
L 140.647268 203.293829 
L 143.9177 203.038776 
L 147.188131 202.816991 
L 150.458563 202.624135 
L 153.728994 202.456434 
L 156.999426 202.310606 
L 160.269858 202.1838 
L 163.540289 202.073534 
L 166.810721 201.97765 
L 170.081152 201.894273 
L 173.351584 201.821771 
L 176.622016 201.758726 
L 179.892447 201.703904 
L 183.162879 201.656233 
L 186.43331 201.61478 
L 189.703742 201.578733 
L 192.974174 201.547389 
L 196.244605 201.520133 
L 199.515037 201.496432 
L 202.785468 201.475822 
L 206.0559 201.457901 
L 209.326331 201.442317 
L 212.596763 201.428766 
L 215.867195 201.416982 
L 219.137626 201.406736 
L 222.408058 201.397826 
L 225.678489 201.390078 
L 228.948921 201.38334 
L 232.219353 201.377482 
L 235.489784 201.372388 
L 238.760216 201.367958 
L 242.030647 201.364106 
L 245.301079 201.360756 
L 248.571511 201.357843 
L 251.841942 201.35531 
L 255.112374 201.353108 
L 258.382805 201.351193 
L 261.653237 201.349527 
L 264.923669 201.348079 
L 268.1941 201.34682 
L 271.464532 201.345725 
L 274.734963 201.344773 
L 278.005395 201.343945 
L 281.275826 201.343225 
L 284.546258 201.342599 
L 287.81669 201.342054 
L 291.087121 201.341581 
L 294.357553 201.341169 
L 297.627984 201.340811 
L 300.898416 201.3405 
L 304.168848 201.34023 
L 307.439279 201.339994 
L 310.709711 201.339789 
L 313.980142 201.339612 
L 317.250574 201.339457 
L 320.521006 201.339322 
L 323.791437 201.339205 
L 327.061869 201.339103 
L 330.3323 201.339015 
L 333.602732 201.338938 
L 336.873163 201.338871 
L 340.143595 201.338813 
L 343.414027 201.338762 
L 346.684458 201.338718 
L 349.95489 201.33868 
L 353.225321 201.338647 
L 356.495753 201.338618 
L 359.766185 201.338593 
L 363.036616 201.338571 
L 366.307048 201.338552 
L 369.577479 201.338535 
L 372.847911 201.338521 
L 376.118343 201.338508 
L 379.388774 201.338498 
L 382.659206 201.338488 
L 385.929637 201.33848 
L 389.200069 201.338473 
L 392.4705 201.338466 
L 395.740932 201.338461 
L 399.011364 201.338456 
" style="fill:none;stroke:#c44e52;stroke-linecap:round;stroke-width:1.5;"/>
   </g>
   <g id="line2d_16">
    <path clip-path="url(#pd58689fdc3)" d="M 75.238636 233.341619 
L 78.509068 229.34122 
L 81.7795 226.007554 
L 85.049931 223.229499 
L 88.320363 220.914453 
L 91.590794 218.985248 
L 94.861226 217.377577 
L 98.131657 216.037852 
L 101.402089 214.921414 
L 104.672521 213.991049 
L 107.942952 213.215745 
L 111.213384 212.569658 
L 114.483815 212.031252 
L 117.754247 211.582581 
L 121.024679 211.208688 
L 124.29511 210.89711 
L 127.565542 210.637463 
L 130.835973 210.421089 
L 134.106405 210.240778 
L 137.376837 210.090519 
L 140.647268 209.965303 
L 143.9177 209.860957 
L 147.188131 209.774001 
L 150.458563 209.701538 
L 153.728994 209.641153 
L 156.999426 209.590831 
L 160.269858 209.548896 
L 163.540289 209.513951 
L 166.810721 209.48483 
L 170.081152 209.460562 
L 173.351584 209.440339 
L 176.622016 209.423486 
L 179.892447 209.409443 
L 183.162879 209.397739 
L 186.43331 209.387987 
L 189.703742 209.37986 
L 192.974174 209.373087 
L 196.244605 209.367443 
L 199.515037 209.36274 
L 202.785468 209.35882 
L 206.0559 209.355554 
L 209.326331 209.352833 
L 212.596763 209.350564 
L 215.867195 209.348674 
L 219.137626 209.347099 
L 222.408058 209.345787 
L 225.678489 209.344693 
L 228.948921 209.343781 
L 232.219353 209.343022 
L 235.489784 209.342389 
L 238.760216 209.341861 
L 242.030647 209.341422 
L 245.301079 209.341055 
L 248.571511 209.34075 
L 251.841942 209.340496 
L 255.112374 209.340284 
L 258.382805 209.340107 
L 261.653237 209.33996 
L 264.923669 209.339837 
L 268.1941 209.339735 
L 271.464532 209.33965 
L 274.734963 209.339579 
L 278.005395 209.339519 
L 281.275826 209.33947 
L 284.546258 209.339429 
L 287.81669 209.339395 
L 291.087121 209.339366 
L 294.357553 209.339342 
L 297.627984 209.339323 
L 300.898416 209.339306 
L 304.168848 209.339292 
L 307.439279 209.339281 
L 310.709711 209.339271 
L 313.980142 209.339263 
L 317.250574 209.339257 
L 320.521006 209.339251 
L 323.791437 209.339247 
L 327.061869 209.339243 
L 330.3323 209.33924 
L 333.602732 209.339237 
L 336.873163 209.339235 
L 340.143595 209.339233 
L 343.414027 209.339231 
L 346.684458 209.33923 
L 349.95489 209.339229 
L 353.225321 209.339228 
L 356.495753 209.339227 
L 359.766185 209.339227 
L 363.036616 209.339226 
L 366.307048 209.339226 
L 369.577479 209.339225 
L 372.847911 209.339225 
L 376.118343 209.339225 
L 379.388774 209.339225 
L 382.659206 209.339224 
L 385.929637 209.339224 
L 389.200069 209.339224 
L 392.4705 209.339224 
L 395.740932 209.339224 
L 399.011364 209.339224 
" style="fill:none;stroke:#8172b3;stroke-linecap:round;stroke-width:1.5;"/>
   </g>
   <g id="patch_3">
    <path d="M 59.05 243.653125 
L 59.05 16.8 
" style="fill:none;stroke:#ffffff;stroke-linecap:square;stroke-linejoin:miter;stroke-width:1.25;"/>
   </g>
   <g id="patch_4">
    <path d="M 415.2 243.653125 
L 415.2 16.8 
" style="fill:none;stroke:#ffffff;stroke-linecap:square;stroke-linejoin:miter;stroke-width:1.25;"/>
   </g>
   <g id="patch_5">
    <path d="M 59.05 243.653125 
L 415.2 243.653125 
" style="fill:none;stroke:#ffffff;stroke-linecap:square;stroke-linejoin:miter;stroke-width:1.25;"/>
   </g>
   <g id="patch_6">
    <path d="M 59.05 16.8 
L 415.2 16.8 
" style="fill:none;stroke:#ffffff;stroke-linecap:square;stroke-linejoin:miter;stroke-width:1.25;"/>
   </g>
   <g id="legend_1">
    <g id="patch_7">
     <path d="M 66.75 103.399219 
L 144.52 103.399219 
Q 146.72 103.399219 146.72 101.199219 
L 146.72 24.5 
Q 146.72 22.3 144.52 22.3 
L 66.75 22.3 
Q 64.55 22.3 64.55 24.5 
L 64.55 101.199219 
Q 64.55 103.399219 66.75 103.399219 
z
" style="fill:#eaeaf2;opacity:0.8;stroke:#cccccc;stroke-linejoin:miter;"/>
    </g>
    <g id="line2d_17">
     <path d="M 68.95 30.723594 
L 90.95 30.723594 
" style="fill:none;stroke:#4c72b0;stroke-linecap:round;stroke-width:1.5;"/>
    </g>
    <g id="line2d_18"/>
    <g id="text_14">
     <!-- $r=0.02$ -->
     <defs>
      <path d="M 44.578125 46.390625 
Q 43.21875 47.125 41.453125 47.515625 
Q 39.703125 47.90625 37.703125 47.90625 
Q 30.515625 47.90625 25.140625 42.453125 
Q 19.78125 37.015625 18.015625 27.875 
L 12.5 0 
L 3.515625 0 
L 14.203125 54.6875 
L 23.1875 54.6875 
L 21.484375 46.1875 
Q 25.046875 50.921875 30 53.453125 
Q 34.96875 56 40.578125 56 
Q 42.046875 56 43.453125 55.828125 
Q 44.875 55.671875 46.296875 55.28125 
z
" id="DejaVuSans-Oblique-114"/>
      <path d="M 10.59375 45.40625 
L 73.1875 45.40625 
L 73.1875 37.203125 
L 10.59375 37.203125 
z
M 10.59375 25.484375 
L 73.1875 25.484375 
L 73.1875 17.1875 
L 10.59375 17.1875 
z
" id="DejaVuSans-61"/>
      <path d="M 31.78125 66.40625 
Q 24.171875 66.40625 20.328125 58.90625 
Q 16.5 51.421875 16.5 36.375 
Q 16.5 21.390625 20.328125 13.890625 
Q 24.171875 6.390625 31.78125 6.390625 
Q 39.453125 6.390625 43.28125 13.890625 
Q 47.125 21.390625 47.125 36.375 
Q 47.125 51.421875 43.28125 58.90625 
Q 39.453125 66.40625 31.78125 66.40625 
z
M 31.78125 74.21875 
Q 44.046875 74.21875 50.515625 64.515625 
Q 56.984375 54.828125 56.984375 36.375 
Q 56.984375 17.96875 50.515625 8.265625 
Q 44.046875 -1.421875 31.78125 -1.421875 
Q 19.53125 -1.421875 13.0625 8.265625 
Q 6.59375 17.96875 6.59375 36.375 
Q 6.59375 54.828125 13.0625 64.515625 
Q 19.53125 74.21875 31.78125 74.21875 
z
" id="DejaVuSans-48"/>
      <path d="M 10.6875 12.40625 
L 21 12.40625 
L 21 0 
L 10.6875 0 
z
" id="DejaVuSans-46"/>
      <path d="M 19.1875 8.296875 
L 53.609375 8.296875 
L 53.609375 0 
L 7.328125 0 
L 7.328125 8.296875 
Q 12.9375 14.109375 22.625 23.890625 
Q 32.328125 33.6875 34.8125 36.53125 
Q 39.546875 41.84375 41.421875 45.53125 
Q 43.3125 49.21875 43.3125 52.78125 
Q 43.3125 58.59375 39.234375 62.25 
Q 35.15625 65.921875 28.609375 65.921875 
Q 23.96875 65.921875 18.8125 64.3125 
Q 13.671875 62.703125 7.8125 59.421875 
L 7.8125 69.390625 
Q 13.765625 71.78125 18.9375 73 
Q 24.125 74.21875 28.421875 74.21875 
Q 39.75 74.21875 46.484375 68.546875 
Q 53.21875 62.890625 53.21875 53.421875 
Q 53.21875 48.921875 51.53125 44.890625 
Q 49.859375 40.875 45.40625 35.40625 
Q 44.1875 33.984375 37.640625 27.21875 
Q 31.109375 20.453125 19.1875 8.296875 
z
" id="DejaVuSans-50"/>
     </defs>
     <g style="fill:#262626;" transform="translate(99.75 34.573594)scale(0.11 -0.11)">
      <use transform="translate(0 0.78125)" xlink:href="#DejaVuSans-Oblique-114"/>
      <use transform="translate(60.595703 0.78125)" xlink:href="#DejaVuSans-61"/>
      <use transform="translate(163.867188 0.78125)" xlink:href="#DejaVuSans-48"/>
      <use transform="translate(227.490234 0.78125)" xlink:href="#DejaVuSans-46"/>
      <use transform="translate(259.277344 0.78125)" xlink:href="#DejaVuSans-48"/>
      <use transform="translate(322.900391 0.78125)" xlink:href="#DejaVuSans-50"/>
     </g>
    </g>
    <g id="line2d_19">
     <path d="M 68.95 46.283437 
L 90.95 46.283437 
" style="fill:none;stroke:#dd8452;stroke-linecap:round;stroke-width:1.5;"/>
    </g>
    <g id="line2d_20"/>
    <g id="text_15">
     <!-- $r=0.05$ -->
     <defs>
      <path d="M 10.796875 72.90625 
L 49.515625 72.90625 
L 49.515625 64.59375 
L 19.828125 64.59375 
L 19.828125 46.734375 
Q 21.96875 47.46875 24.109375 47.828125 
Q 26.265625 48.1875 28.421875 48.1875 
Q 40.625 48.1875 47.75 41.5 
Q 54.890625 34.8125 54.890625 23.390625 
Q 54.890625 11.625 47.5625 5.09375 
Q 40.234375 -1.421875 26.90625 -1.421875 
Q 22.3125 -1.421875 17.546875 -0.640625 
Q 12.796875 0.140625 7.71875 1.703125 
L 7.71875 11.625 
Q 12.109375 9.234375 16.796875 8.0625 
Q 21.484375 6.890625 26.703125 6.890625 
Q 35.15625 6.890625 40.078125 11.328125 
Q 45.015625 15.765625 45.015625 23.390625 
Q 45.015625 31 40.078125 35.4375 
Q 35.15625 39.890625 26.703125 39.890625 
Q 22.75 39.890625 18.8125 39.015625 
Q 14.890625 38.140625 10.796875 36.28125 
z
" id="DejaVuSans-53"/>
     </defs>
     <g style="fill:#262626;" transform="translate(99.75 50.133437)scale(0.11 -0.11)">
      <use transform="translate(0 0.78125)" xlink:href="#DejaVuSans-Oblique-114"/>
      <use transform="translate(60.595703 0.78125)" xlink:href="#DejaVuSans-61"/>
      <use transform="translate(163.867188 0.78125)" xlink:href="#DejaVuSans-48"/>
      <use transform="translate(227.490234 0.78125)" xlink:href="#DejaVuSans-46"/>
      <use transform="translate(259.277344 0.78125)" xlink:href="#DejaVuSans-48"/>
      <use transform="translate(322.900391 0.78125)" xlink:href="#DejaVuSans-53"/>
     </g>
    </g>
    <g id="line2d_21">
     <path d="M 68.95 61.843281 
L 90.95 61.843281 
" style="fill:none;stroke:#55a868;stroke-linecap:round;stroke-width:1.5;"/>
    </g>
    <g id="line2d_22"/>
    <g id="text_16">
     <!-- $r=0.1$ -->
     <defs>
      <path d="M 12.40625 8.296875 
L 28.515625 8.296875 
L 28.515625 63.921875 
L 10.984375 60.40625 
L 10.984375 69.390625 
L 28.421875 72.90625 
L 38.28125 72.90625 
L 38.28125 8.296875 
L 54.390625 8.296875 
L 54.390625 0 
L 12.40625 0 
z
" id="DejaVuSans-49"/>
     </defs>
     <g style="fill:#262626;" transform="translate(99.75 65.693281)scale(0.11 -0.11)">
      <use transform="translate(0 0.78125)" xlink:href="#DejaVuSans-Oblique-114"/>
      <use transform="translate(60.595703 0.78125)" xlink:href="#DejaVuSans-61"/>
      <use transform="translate(163.867188 0.78125)" xlink:href="#DejaVuSans-48"/>
      <use transform="translate(227.490234 0.78125)" xlink:href="#DejaVuSans-46"/>
      <use transform="translate(259.277344 0.78125)" xlink:href="#DejaVuSans-49"/>
     </g>
    </g>
    <g id="line2d_23">
     <path d="M 68.95 77.403125 
L 90.95 77.403125 
" style="fill:none;stroke:#c44e52;stroke-linecap:round;stroke-width:1.5;"/>
    </g>
    <g id="line2d_24"/>
    <g id="text_17">
     <!-- $r=0.15$ -->
     <g style="fill:#262626;" transform="translate(99.75 81.253125)scale(0.11 -0.11)">
      <use transform="translate(0 0.78125)" xlink:href="#DejaVuSans-Oblique-114"/>
      <use transform="translate(60.595703 0.78125)" xlink:href="#DejaVuSans-61"/>
      <use transform="translate(163.867188 0.78125)" xlink:href="#DejaVuSans-48"/>
      <use transform="translate(227.490234 0.78125)" xlink:href="#DejaVuSans-46"/>
      <use transform="translate(259.277344 0.78125)" xlink:href="#DejaVuSans-49"/>
      <use transform="translate(322.900391 0.78125)" xlink:href="#DejaVuSans-53"/>
     </g>
    </g>
    <g id="line2d_25">
     <path d="M 68.95 92.962969 
L 90.95 92.962969 
" style="fill:none;stroke:#8172b3;stroke-linecap:round;stroke-width:1.5;"/>
    </g>
    <g id="line2d_26"/>
    <g id="text_18">
     <!-- $r=0.2$ -->
     <g style="fill:#262626;" transform="translate(99.75 96.812969)scale(0.11 -0.11)">
      <use transform="translate(0 0.78125)" xlink:href="#DejaVuSans-Oblique-114"/>
      <use transform="translate(60.595703 0.78125)" xlink:href="#DejaVuSans-61"/>
      <use transform="translate(163.867188 0.78125)" xlink:href="#DejaVuSans-48"/>
      <use transform="translate(227.490234 0.78125)" xlink:href="#DejaVuSans-46"/>
      <use transform="translate(259.199219 0.78125)" xlink:href="#DejaVuSans-50"/>
     </g>
    </g>
   </g>
  </g>
 </g>
 <defs>
  <clipPath id="pd58689fdc3">
   <rect height="226.853125" width="356.15" x="59.05" y="16.8"/>
  </clipPath>
 </defs>
</svg>
